# Blender v2.91.2 OBJ File: 'Door_TokenNile.blend'
# www.blender.org
mtllib Door_TokenNile.mtl
o Door_TokenNile
v 0.023188 0.005831 0.122706
v 0.023188 -0.004169 0.122706
v 0.024937 -0.004169 0.120377
v 0.024937 0.005831 0.120377
v 0.029221 -0.004169 0.113804
v 0.029221 0.005831 0.113804
v 0.034264 -0.004169 0.104704
v 0.034264 0.005831 0.104704
v 0.040112 -0.004169 0.092618
v 0.040112 0.005831 0.092618
v 0.046862 -0.004169 0.076969
v 0.046862 0.005831 0.076969
v 0.054622 -0.004169 0.057129
v 0.054622 0.005831 0.057129
v 0.063504 -0.004169 0.032422
v 0.063504 0.005831 0.032422
v 0.074425 -0.004169 -0.000360
v 0.074425 0.005831 -0.000360
v -0.075278 0.005831 -0.000360
v -0.075278 -0.004169 -0.000360
v -0.064356 -0.004169 0.032422
v -0.064356 0.005831 0.032422
v -0.055475 -0.004169 0.057129
v -0.055475 0.005831 0.057129
v -0.047715 -0.004169 0.076969
v -0.047715 0.005831 0.076969
v -0.040964 -0.004169 0.092618
v -0.040964 0.005831 0.092618
v -0.035117 -0.004169 0.104704
v -0.035117 0.005831 0.104704
v -0.030073 -0.004169 0.113804
v -0.030073 0.005831 0.113804
v -0.025790 -0.004169 0.120377
v -0.025790 0.005831 0.120377
v -0.024041 -0.004169 0.122706
v -0.024041 0.005831 0.122706
v -0.027607 0.005831 0.122706
v -0.027607 -0.004169 0.122706
v -0.027179 -0.004169 0.128811
v -0.027179 0.005831 0.128811
v -0.025906 -0.004169 0.134722
v -0.025906 0.005831 0.134722
v -0.023830 -0.004169 0.140255
v -0.023830 0.005831 0.140255
v -0.021015 -0.004169 0.145234
v -0.021015 0.005831 0.145234
v -0.017550 -0.004169 0.149503
v -0.017550 0.005831 0.149503
v -0.013869 -0.004169 0.152696
v -0.013869 0.005831 0.152696
v -0.010115 -0.004169 0.154945
v -0.010115 0.005831 0.154945
v -0.006356 -0.004169 0.156380
v -0.006356 0.005831 0.156380
v -0.004169 -0.004169 0.156883
v -0.004169 0.005831 0.156883
v -0.004169 0.005831 0.240274
v -0.004169 -0.004169 0.240274
v 0.003516 0.005831 0.240274
v 0.003516 -0.004169 0.240274
v 0.003516 0.005831 0.156846
v 0.003516 -0.004169 0.156846
v 0.007269 -0.004169 0.155800
v 0.007269 0.005831 0.155800
v 0.011030 -0.004169 0.153997
v 0.011030 0.005831 0.153997
v 0.014762 -0.004169 0.151322
v 0.014762 0.005831 0.151322
v 0.018367 -0.004169 0.147635
v 0.018367 0.005831 0.147635
v 0.021545 -0.004169 0.143021
v 0.021545 0.005831 0.143021
v 0.024029 -0.004169 0.137766
v 0.024029 0.005831 0.137766
v 0.025742 -0.004169 0.132037
v 0.025742 0.005831 0.132037
v 0.026630 -0.004169 0.126013
v 0.026630 0.005831 0.126013
v 0.026755 -0.004169 0.122706
v 0.026755 0.005831 0.122706
vn 0.7997 0.0000 0.6005
vn 0.8378 0.0000 0.5460
vn 0.8747 0.0000 0.4847
vn 0.9002 0.0000 0.4355
vn 0.9182 0.0000 0.3961
vn 0.9313 0.0000 0.3643
vn 0.9411 0.0000 0.3383
vn 0.9487 0.0000 0.3161
vn 0.0000 0.0000 -1.0000
vn -0.9487 0.0000 0.3161
vn -0.9411 0.0000 0.3383
vn -0.9313 0.0000 0.3643
vn -0.9182 0.0000 0.3961
vn -0.9002 0.0000 0.4355
vn -0.8747 0.0000 0.4847
vn -0.8378 0.0000 0.5460
vn -0.7997 0.0000 0.6005
vn -0.9975 0.0000 0.0701
vn -0.9776 0.0000 0.2105
vn -0.9362 0.0000 0.3514
vn -0.8705 0.0000 0.4921
vn -0.7764 0.0000 0.6302
vn -0.6553 0.0000 0.7554
vn -0.5139 0.0000 0.8579
vn -0.3567 0.0000 0.9342
vn -0.2239 0.0000 0.9746
vn -1.0000 0.0000 0.0000
vn 0.0000 0.0000 1.0000
vn 1.0000 0.0000 0.0000
vn 0.2687 0.0000 0.9632
vn 0.4323 0.0000 0.9017
vn 0.5826 0.0000 0.8128
vn 0.7150 0.0000 0.6991
vn 0.8236 0.0000 0.5672
vn 0.9040 0.0000 0.4275
vn 0.9581 0.0000 0.2864
vn 0.9893 0.0000 0.1458
vn 0.9993 0.0000 0.0378
vn 0.0000 1.0000 0.0000
vn 0.0000 -1.0000 0.0000
usemtl None
s off
f 1//1 2//1 3//1
f 1//1 3//1 4//1
f 4//2 3//2 5//2
f 4//2 5//2 6//2
f 6//3 5//3 7//3
f 6//3 7//3 8//3
f 8//4 7//4 9//4
f 8//4 9//4 10//4
f 10//5 9//5 11//5
f 10//5 11//5 12//5
f 12//6 11//6 13//6
f 12//6 13//6 14//6
f 14//7 13//7 15//7
f 14//7 15//7 16//7
f 16//8 15//8 17//8
f 16//8 17//8 18//8
f 19//9 18//9 20//9
f 20//9 18//9 17//9
f 19//10 20//10 21//10
f 19//10 21//10 22//10
f 22//11 21//11 23//11
f 22//11 23//11 24//11
f 24//12 23//12 25//12
f 24//12 25//12 26//12
f 26//13 25//13 27//13
f 26//13 27//13 28//13
f 28//14 27//14 29//14
f 28//14 29//14 30//14
f 30//15 29//15 31//15
f 30//15 31//15 32//15
f 32//16 31//16 33//16
f 32//16 33//16 34//16
f 34//17 33//17 35//17
f 34//17 35//17 36//17
f 37//9 36//9 38//9
f 38//9 36//9 35//9
f 37//18 38//18 39//18
f 37//18 39//18 40//18
f 40//19 39//19 41//19
f 40//19 41//19 42//19
f 42//20 41//20 43//20
f 42//20 43//20 44//20
f 44//21 43//21 45//21
f 44//21 45//21 46//21
f 46//22 45//22 47//22
f 46//22 47//22 48//22
f 48//23 47//23 49//23
f 48//23 49//23 50//23
f 50//24 49//24 51//24
f 50//24 51//24 52//24
f 52//25 51//25 53//25
f 52//25 53//25 54//25
f 54//26 53//26 55//26
f 54//26 55//26 56//26
f 57//27 56//27 58//27
f 58//27 56//27 55//27
f 59//28 57//28 60//28
f 60//28 57//28 58//28
f 61//29 59//29 62//29
f 62//29 59//29 60//29
f 61//30 62//30 63//30
f 61//30 63//30 64//30
f 64//31 63//31 65//31
f 64//31 65//31 66//31
f 66//32 65//32 67//32
f 66//32 67//32 68//32
f 68//33 67//33 69//33
f 68//33 69//33 70//33
f 70//34 69//34 71//34
f 70//34 71//34 72//34
f 72//35 71//35 73//35
f 72//35 73//35 74//35
f 74//36 73//36 75//36
f 74//36 75//36 76//36
f 76//37 75//37 77//37
f 76//37 77//37 78//37
f 78//38 77//38 79//38
f 78//38 79//38 80//38
f 1//9 80//9 2//9
f 2//9 80//9 79//9
f 70//39 72//39 56//39
f 16//39 18//39 22//39
f 22//39 18//39 19//39
f 72//39 74//39 1//39
f 36//39 37//39 40//39
f 57//39 59//39 56//39
f 56//39 59//39 61//39
f 70//39 56//39 68//39
f 74//39 76//39 1//39
f 1//39 76//39 78//39
f 1//39 78//39 80//39
f 36//39 40//39 54//39
f 40//39 42//39 54//39
f 54//39 42//39 44//39
f 54//39 44//39 46//39
f 61//39 64//39 56//39
f 56//39 64//39 66//39
f 56//39 66//39 68//39
f 16//39 22//39 14//39
f 14//39 22//39 24//39
f 14//39 24//39 12//39
f 12//39 24//39 26//39
f 12//39 26//39 28//39
f 46//39 48//39 54//39
f 54//39 48//39 50//39
f 54//39 50//39 52//39
f 4//39 6//39 30//39
f 30//39 6//39 8//39
f 30//39 8//39 28//39
f 28//39 8//39 10//39
f 28//39 10//39 12//39
f 30//39 32//39 4//39
f 4//39 32//39 34//39
f 4//39 34//39 1//39
f 1//39 34//39 36//39
f 1//39 36//39 72//39
f 72//39 36//39 54//39
f 72//39 54//39 56//39
f 21//40 20//40 17//40
f 73//40 71//40 35//40
f 35//40 71//40 55//40
f 35//40 55//40 53//40
f 79//40 77//40 2//40
f 2//40 77//40 75//40
f 71//40 69//40 55//40
f 55//40 69//40 67//40
f 55//40 67//40 65//40
f 45//40 43//40 53//40
f 53//40 43//40 41//40
f 53//40 41//40 35//40
f 35//40 41//40 39//40
f 35//40 39//40 38//40
f 60//40 58//40 62//40
f 62//40 58//40 55//40
f 62//40 55//40 63//40
f 63//40 55//40 65//40
f 17//40 15//40 21//40
f 21//40 15//40 13//40
f 21//40 13//40 23//40
f 23//40 13//40 11//40
f 23//40 11//40 25//40
f 25//40 11//40 27//40
f 51//40 49//40 53//40
f 53//40 49//40 47//40
f 53//40 47//40 45//40
f 31//40 29//40 3//40
f 11//40 9//40 27//40
f 27//40 9//40 7//40
f 27//40 7//40 29//40
f 29//40 7//40 5//40
f 29//40 5//40 3//40
f 75//40 73//40 2//40
f 2//40 73//40 35//40
f 2//40 35//40 3//40
f 3//40 35//40 33//40
f 3//40 33//40 31//40
