# Blender v2.91.2 OBJ File: ''
# www.blender.org
mtllib Door_TokenIntro.mtl
o Door_TokenIntro
v 0.050000 0.184471 -0.526175
v 0.050000 0.559459 -0.526175
v 0.050000 0.394304 -0.473862
v 0.050000 0.559459 -0.473862
v 0.050000 0.317876 -0.474330
v 0.050000 0.345272 -0.474330
v 0.050000 0.345272 -0.380794
v 0.050000 0.394304 -0.380794
v 0.050000 0.700031 -0.649791
v 0.050000 0.707099 -0.595903
v 0.050000 0.698967 -0.595558
v 0.050000 0.682938 -0.592809
v 0.050000 0.667604 -0.587391
v 0.050000 0.653406 -0.579460
v 0.050000 0.571763 -0.564562
v 0.050000 0.581667 -0.582168
v 0.050000 0.641659 -0.634923
v 0.050000 0.660387 -0.642496
v 0.050000 0.679963 -0.647482
v 0.050000 0.232116 -0.381079
v 0.050000 0.184471 -0.381079
v 0.050000 0.232116 -0.472772
v 0.050000 0.270231 -0.472772
v 0.050000 0.270231 -0.425483
v 0.050000 0.317876 -0.425483
v 0.050000 0.564315 -0.545784
v 0.050000 0.640753 -0.569243
v 0.050000 0.630008 -0.557035
v 0.050000 0.621481 -0.543186
v 0.050000 0.615417 -0.528096
v 0.050000 0.593848 -0.598283
v 0.050000 0.608085 -0.612615
v 0.050000 0.624119 -0.624902
v 0.050000 0.613366 -0.479818
v 0.050000 0.564315 -0.454253
v 0.050000 0.618129 -0.464267
v 0.050000 0.611991 -0.512198
v 0.050000 0.611301 -0.495949
v 0.050000 0.779077 -0.436670
v 0.050000 0.810593 -0.391525
v 0.050000 0.767336 -0.425417
v 0.050000 0.795070 -0.378598
v 0.050000 0.753862 -0.416310
v 0.050000 0.777950 -0.367875
v 0.050000 0.739042 -0.409611
v 0.050000 0.759544 -0.359550
v 0.050000 0.723304 -0.405513
v 0.050000 0.740186 -0.353775
v 0.050000 0.720228 -0.350655
v 0.050000 0.707099 -0.404134
v 0.050000 0.700031 -0.350246
v 0.050000 0.690894 -0.405513
v 0.050000 0.679963 -0.352555
v 0.050000 0.675156 -0.409611
v 0.050000 0.660387 -0.357541
v 0.050000 0.660337 -0.416310
v 0.050000 0.784190 -0.557035
v 0.050000 0.835756 -0.577020
v 0.050000 0.792717 -0.543186
v 0.050000 0.844939 -0.559027
v 0.050000 0.798781 -0.528096
v 0.050000 0.851620 -0.539963
v 0.050000 0.802207 -0.512198
v 0.050000 0.855678 -0.520173
v 0.050000 0.802897 -0.495949
v 0.050000 0.641659 -0.365114
v 0.050000 0.624119 -0.375134
v 0.050000 0.646862 -0.425417
v 0.050000 0.608085 -0.387422
v 0.050000 0.635121 -0.436670
v 0.050000 0.593848 -0.401754
v 0.050000 0.625450 -0.449745
v 0.050000 0.581667 -0.417869
v 0.050000 0.571763 -0.435475
v 0.050000 0.857038 -0.500018
v 0.050000 0.855678 -0.479863
v 0.050000 0.800832 -0.479818
v 0.050000 0.851620 -0.460074
v 0.050000 0.796069 -0.464267
v 0.050000 0.844939 -0.441010
v 0.050000 0.788748 -0.449745
v 0.050000 0.835756 -0.423017
v 0.050000 0.824238 -0.406422
v 0.050000 0.746594 -0.587391
v 0.050000 0.777950 -0.632162
v 0.050000 0.760792 -0.579460
v 0.050000 0.795070 -0.621439
v 0.050000 0.773445 -0.569243
v 0.050000 0.810593 -0.608512
v 0.050000 0.824238 -0.593615
v 0.050000 0.715231 -0.595558
v 0.050000 0.720228 -0.649382
v 0.050000 0.731260 -0.592809
v 0.050000 0.740186 -0.646261
v 0.050000 0.759544 -0.640487
v 0.000000 0.184471 -0.526175
v 0.000000 0.184471 -0.381079
v 0.000000 0.232116 -0.381079
v 0.000000 0.232116 -0.472772
v 0.000000 0.270231 -0.472772
v 0.000000 0.559459 -0.526175
v 0.000000 0.345272 -0.474330
v 0.000000 0.345272 -0.380794
v 0.000000 0.394304 -0.380794
v 0.000000 0.394304 -0.473862
v 0.000000 0.317876 -0.474330
v 0.000000 0.317876 -0.425483
v 0.000000 0.270231 -0.425483
v 0.000000 0.641659 -0.634923
v 0.000000 0.559459 -0.473862
v 0.000000 0.660387 -0.642496
v 0.000000 0.679963 -0.647482
v 0.000000 0.608085 -0.612615
v 0.000000 0.593848 -0.598283
v 0.000000 0.564315 -0.545784
v 0.000000 0.581667 -0.582168
v 0.000000 0.571763 -0.564562
v 0.000000 0.707099 -0.404134
v 0.000000 0.690894 -0.405513
v 0.000000 0.679963 -0.352555
v 0.000000 0.660387 -0.357541
v 0.000000 0.675156 -0.409611
v 0.000000 0.641659 -0.365114
v 0.000000 0.660337 -0.416310
v 0.000000 0.624119 -0.375134
v 0.000000 0.646862 -0.425417
v 0.000000 0.608085 -0.387422
v 0.000000 0.700031 -0.649791
v 0.000000 0.630008 -0.557035
v 0.000000 0.640753 -0.569243
v 0.000000 0.624119 -0.624902
v 0.000000 0.653406 -0.579460
v 0.000000 0.667604 -0.587391
v 0.000000 0.682938 -0.592809
v 0.000000 0.700031 -0.350246
v 0.000000 0.720228 -0.350655
v 0.000000 0.723304 -0.405513
v 0.000000 0.740186 -0.353775
v 0.000000 0.739042 -0.409611
v 0.000000 0.759544 -0.359550
v 0.000000 0.753862 -0.416310
v 0.000000 0.777950 -0.367875
v 0.000000 0.767336 -0.425417
v 0.000000 0.611991 -0.512198
v 0.000000 0.615417 -0.528096
v 0.000000 0.621481 -0.543186
v 0.000000 0.795070 -0.378598
v 0.000000 0.810593 -0.391525
v 0.000000 0.779077 -0.436670
v 0.000000 0.824238 -0.406422
v 0.000000 0.788748 -0.449745
v 0.000000 0.835756 -0.423017
v 0.000000 0.796069 -0.464267
v 0.000000 0.844939 -0.441010
v 0.000000 0.800832 -0.479818
v 0.000000 0.593848 -0.401754
v 0.000000 0.635121 -0.436670
v 0.000000 0.581667 -0.417869
v 0.000000 0.625450 -0.449745
v 0.000000 0.571763 -0.435475
v 0.000000 0.618129 -0.464267
v 0.000000 0.564315 -0.454253
v 0.000000 0.613366 -0.479818
v 0.000000 0.611301 -0.495949
v 0.000000 0.792717 -0.543186
v 0.000000 0.835756 -0.577020
v 0.000000 0.784190 -0.557035
v 0.000000 0.824238 -0.593615
v 0.000000 0.773445 -0.569243
v 0.000000 0.810593 -0.608512
v 0.000000 0.760792 -0.579460
v 0.000000 0.851620 -0.460074
v 0.000000 0.855678 -0.479863
v 0.000000 0.802897 -0.495949
v 0.000000 0.857038 -0.500018
v 0.000000 0.802207 -0.512198
v 0.000000 0.855678 -0.520173
v 0.000000 0.798781 -0.528096
v 0.000000 0.851620 -0.539963
v 0.000000 0.844939 -0.559027
v 0.000000 0.795070 -0.621439
v 0.000000 0.777950 -0.632162
v 0.000000 0.746594 -0.587391
v 0.000000 0.759544 -0.640487
v 0.000000 0.731260 -0.592809
v 0.000000 0.740186 -0.646261
v 0.000000 0.715231 -0.595558
v 0.000000 0.720228 -0.649382
v 0.000000 0.707099 -0.595903
v 0.000000 0.698967 -0.595558
vn 1.0000 0.0000 0.0000
vn -1.0000 0.0000 0.0000
vn 0.0000 0.0000 1.0000
vn 0.0000 -1.0000 0.0000
vn 0.0000 0.0000 -1.0000
vn 0.0000 -0.9707 -0.2404
vn 0.0000 -0.9296 -0.3687
vn 0.0000 -0.8716 -0.4903
vn 0.0000 -0.7977 -0.6030
vn 0.0000 -0.7094 -0.7048
vn 0.0000 -0.7095 -0.7048
vn 0.0000 -0.6083 -0.7937
vn 0.0000 -0.4961 -0.8683
vn 0.0000 -0.3748 -0.9271
vn 0.0000 -0.2468 -0.9691
vn 0.0000 -0.1143 -0.9934
vn 0.0000 0.0203 -0.9998
vn 0.0000 0.1545 -0.9880
vn 0.0000 0.2859 -0.9583
vn 0.0000 0.4121 -0.9111
vn 0.0000 0.5308 -0.8475
vn 0.0000 0.6399 -0.7684
vn 0.0000 0.7374 -0.6754
vn 0.0000 0.8215 -0.5702
vn 0.0000 0.8907 -0.4546
vn 0.0000 0.9437 -0.3307
vn 0.0000 0.9796 -0.2009
vn 0.0000 0.9977 -0.0674
vn 0.0000 0.9977 0.0674
vn 0.0000 0.9796 0.2009
vn 0.0000 0.9437 0.3307
vn 0.0000 0.8907 0.4546
vn 0.0000 0.8215 0.5702
vn 0.0000 0.7374 0.6754
vn 0.0000 0.6399 0.7684
vn 0.0000 0.5308 0.8475
vn 0.0000 0.4121 0.9111
vn 0.0000 0.2859 0.9583
vn 0.0000 0.1545 0.9880
vn 0.0000 0.0203 0.9998
vn 0.0000 -0.1143 0.9934
vn 0.0000 -0.2468 0.9691
vn 0.0000 -0.3748 0.9271
vn 0.0000 -0.4961 0.8683
vn 0.0000 -0.6083 0.7937
vn 0.0000 -0.7095 0.7048
vn 0.0000 -0.7094 0.7048
vn 0.0000 -0.7977 0.6030
vn 0.0000 -0.8716 0.4903
vn 0.0000 -0.9296 0.3687
vn 0.0000 -0.9707 0.2404
vn 0.0000 1.0000 0.0000
vn 0.0000 -0.0848 -0.9964
vn 0.0000 -0.2520 -0.9677
vn 0.0000 -0.4119 -0.9112
vn 0.0000 -0.5600 -0.8285
vn 0.0000 -0.6919 -0.7220
vn 0.0000 -0.8040 -0.5946
vn 0.0000 -0.8929 -0.4502
vn 0.0000 -0.9562 -0.2928
vn 0.0000 -0.9919 -0.1270
vn 0.0000 -0.9991 0.0424
vn 0.0000 -0.9776 0.2107
vn 0.0000 -0.9279 0.3729
vn 0.0000 -0.8515 0.5243
vn 0.0000 -0.7507 0.6607
vn 0.0000 -0.6282 0.7780
vn 0.0000 -0.4877 0.8730
vn 0.0000 -0.3331 0.9429
vn 0.0000 -0.1690 0.9856
vn 0.0000 -0.0424 0.9991
vn 0.0000 0.0424 0.9991
vn 0.0000 0.1690 0.9856
vn 0.0000 0.3331 0.9429
vn 0.0000 0.4877 0.8730
vn 0.0000 0.6282 0.7780
vn 0.0000 0.7507 0.6607
vn 0.0000 0.8515 0.5243
vn 0.0000 0.9279 0.3729
vn 0.0000 0.9776 0.2107
vn 0.0000 0.9991 0.0424
vn 0.0000 0.9919 -0.1270
vn 0.0000 0.9562 -0.2928
vn 0.0000 0.8929 -0.4502
vn 0.0000 0.8040 -0.5946
vn 0.0000 0.6919 -0.7220
vn 0.0000 0.5600 -0.8285
vn 0.0000 0.4119 -0.9112
vn 0.0000 0.2520 -0.9677
vn 0.0000 0.0848 -0.9964
usemtl None
s off
f 1//1 2//1 3//1
f 3//1 2//1 4//1
f 5//1 1//1 6//1
f 6//1 1//1 3//1
f 6//1 3//1 7//1
f 7//1 3//1 8//1
f 9//1 10//1 11//1
f 11//1 12//1 9//1
f 9//1 12//1 13//1
f 9//1 13//1 14//1
f 15//1 16//1 17//1
f 17//1 18//1 4//1
f 4//1 18//1 19//1
f 4//1 19//1 9//1
f 20//1 21//1 22//1
f 22//1 21//1 1//1
f 22//1 1//1 23//1
f 23//1 1//1 5//1
f 23//1 5//1 24//1
f 24//1 5//1 25//1
f 4//1 2//1 17//1
f 17//1 2//1 26//1
f 17//1 26//1 15//1
f 14//1 27//1 9//1
f 9//1 27//1 28//1
f 9//1 28//1 4//1
f 4//1 28//1 29//1
f 4//1 29//1 30//1
f 16//1 31//1 17//1
f 17//1 31//1 32//1
f 17//1 32//1 33//1
f 4//1 34//1 35//1
f 35//1 34//1 36//1
f 30//1 37//1 4//1
f 4//1 37//1 38//1
f 4//1 38//1 34//1
f 39//1 40//1 41//1
f 41//1 40//1 42//1
f 41//1 42//1 43//1
f 43//1 42//1 44//1
f 43//1 44//1 45//1
f 45//1 44//1 46//1
f 45//1 46//1 47//1
f 46//1 48//1 47//1
f 47//1 48//1 49//1
f 47//1 49//1 50//1
f 50//1 49//1 51//1
f 50//1 51//1 52//1
f 52//1 51//1 53//1
f 52//1 53//1 54//1
f 54//1 53//1 55//1
f 54//1 55//1 56//1
f 57//1 58//1 59//1
f 59//1 58//1 60//1
f 59//1 60//1 61//1
f 61//1 60//1 62//1
f 61//1 62//1 63//1
f 63//1 62//1 64//1
f 63//1 64//1 65//1
f 55//1 66//1 56//1
f 56//1 66//1 67//1
f 56//1 67//1 68//1
f 68//1 67//1 69//1
f 68//1 69//1 70//1
f 70//1 69//1 71//1
f 70//1 71//1 72//1
f 72//1 71//1 73//1
f 72//1 73//1 36//1
f 36//1 73//1 74//1
f 36//1 74//1 35//1
f 64//1 75//1 65//1
f 65//1 75//1 76//1
f 65//1 76//1 77//1
f 77//1 76//1 78//1
f 77//1 78//1 79//1
f 79//1 78//1 80//1
f 79//1 80//1 81//1
f 81//1 80//1 82//1
f 81//1 82//1 39//1
f 39//1 82//1 83//1
f 39//1 83//1 40//1
f 84//1 85//1 86//1
f 86//1 85//1 87//1
f 86//1 87//1 88//1
f 88//1 87//1 89//1
f 88//1 89//1 57//1
f 57//1 89//1 90//1
f 57//1 90//1 58//1
f 10//1 9//1 91//1
f 91//1 9//1 92//1
f 91//1 92//1 93//1
f 93//1 92//1 94//1
f 93//1 94//1 84//1
f 84//1 94//1 95//1
f 84//1 95//1 85//1
f 96//2 97//2 98//2
f 98//2 99//2 96//2
f 96//2 99//2 100//2
f 96//2 100//2 101//2
f 102//2 103//2 104//2
f 104//2 105//2 102//2
f 102//2 105//2 101//2
f 102//2 101//2 106//2
f 106//2 101//2 100//2
f 106//2 100//2 107//2
f 107//2 100//2 108//2
f 109//2 110//2 111//2
f 111//2 110//2 112//2
f 113//2 114//2 115//2
f 115//2 114//2 116//2
f 115//2 116//2 117//2
f 118//2 119//2 120//2
f 120//2 119//2 121//2
f 121//2 119//2 122//2
f 121//2 122//2 123//2
f 123//2 122//2 124//2
f 123//2 124//2 125//2
f 125//2 124//2 126//2
f 125//2 126//2 127//2
f 112//2 110//2 128//2
f 128//2 110//2 129//2
f 128//2 129//2 130//2
f 105//2 110//2 101//2
f 101//2 110//2 109//2
f 101//2 109//2 115//2
f 115//2 109//2 131//2
f 115//2 131//2 113//2
f 130//2 132//2 128//2
f 128//2 132//2 133//2
f 128//2 133//2 134//2
f 120//2 135//2 118//2
f 118//2 135//2 136//2
f 118//2 136//2 137//2
f 137//2 136//2 138//2
f 137//2 138//2 139//2
f 139//2 138//2 140//2
f 139//2 140//2 141//2
f 141//2 140//2 142//2
f 141//2 142//2 143//2
f 144//2 145//2 110//2
f 110//2 145//2 146//2
f 110//2 146//2 129//2
f 142//2 147//2 143//2
f 143//2 147//2 148//2
f 143//2 148//2 149//2
f 149//2 148//2 150//2
f 149//2 150//2 151//2
f 151//2 150//2 152//2
f 151//2 152//2 153//2
f 153//2 152//2 154//2
f 153//2 154//2 155//2
f 127//2 126//2 156//2
f 156//2 126//2 157//2
f 156//2 157//2 158//2
f 158//2 157//2 159//2
f 158//2 159//2 160//2
f 160//2 159//2 161//2
f 160//2 161//2 162//2
f 162//2 161//2 163//2
f 162//2 163//2 110//2
f 110//2 163//2 164//2
f 110//2 164//2 144//2
f 165//2 166//2 167//2
f 167//2 166//2 168//2
f 167//2 168//2 169//2
f 169//2 168//2 170//2
f 169//2 170//2 171//2
f 154//2 172//2 155//2
f 155//2 172//2 173//2
f 155//2 173//2 174//2
f 174//2 173//2 175//2
f 174//2 175//2 176//2
f 176//2 175//2 177//2
f 176//2 177//2 178//2
f 178//2 177//2 179//2
f 178//2 179//2 165//2
f 165//2 179//2 180//2
f 165//2 180//2 166//2
f 170//2 181//2 171//2
f 171//2 181//2 182//2
f 171//2 182//2 183//2
f 183//2 182//2 184//2
f 183//2 184//2 185//2
f 185//2 184//2 186//2
f 185//2 186//2 187//2
f 187//2 186//2 188//2
f 187//2 188//2 189//2
f 189//2 188//2 128//2
f 189//2 128//2 190//2
f 190//2 128//2 134//2
f 21//3 20//3 97//3
f 97//3 20//3 98//3
f 1//4 21//4 96//4
f 96//4 21//4 97//4
f 2//5 1//5 101//5
f 101//5 1//5 96//5
f 2//6 101//6 115//6
f 2//6 115//6 26//6
f 26//7 115//7 117//7
f 26//7 117//7 15//7
f 15//8 117//8 116//8
f 15//8 116//8 16//8
f 16//9 116//9 114//9
f 16//9 114//9 31//9
f 31//10 114//10 113//10
f 31//11 113//11 32//11
f 32//12 113//12 131//12
f 32//12 131//12 33//12
f 33//13 131//13 109//13
f 33//13 109//13 17//13
f 17//14 109//14 111//14
f 17//14 111//14 18//14
f 18//15 111//15 112//15
f 18//15 112//15 19//15
f 19//16 112//16 128//16
f 19//16 128//16 9//16
f 9//17 128//17 188//17
f 9//17 188//17 92//17
f 92//18 188//18 186//18
f 92//18 186//18 94//18
f 94//19 186//19 184//19
f 94//19 184//19 95//19
f 95//20 184//20 182//20
f 95//20 182//20 85//20
f 85//21 182//21 181//21
f 85//21 181//21 87//21
f 87//22 181//22 170//22
f 87//22 170//22 89//22
f 89//23 170//23 168//23
f 89//23 168//23 90//23
f 90//24 168//24 166//24
f 90//24 166//24 58//24
f 58//25 166//25 180//25
f 58//25 180//25 60//25
f 60//26 180//26 179//26
f 60//26 179//26 62//26
f 62//27 179//27 177//27
f 62//27 177//27 64//27
f 64//28 177//28 175//28
f 64//28 175//28 75//28
f 75//29 175//29 173//29
f 75//29 173//29 76//29
f 76//30 173//30 172//30
f 76//30 172//30 78//30
f 78//31 172//31 154//31
f 78//31 154//31 80//31
f 80//32 154//32 152//32
f 80//32 152//32 82//32
f 82//33 152//33 150//33
f 82//33 150//33 83//33
f 83//34 150//34 148//34
f 83//34 148//34 40//34
f 40//35 148//35 147//35
f 40//35 147//35 42//35
f 42//36 147//36 142//36
f 42//36 142//36 44//36
f 44//37 142//37 140//37
f 44//37 140//37 46//37
f 46//38 140//38 138//38
f 46//38 138//38 48//38
f 48//39 138//39 136//39
f 48//39 136//39 49//39
f 49//40 136//40 135//40
f 49//40 135//40 51//40
f 51//41 135//41 120//41
f 51//41 120//41 53//41
f 53//42 120//42 121//42
f 53//42 121//42 55//42
f 55//43 121//43 123//43
f 55//43 123//43 66//43
f 66//44 123//44 125//44
f 66//44 125//44 67//44
f 67//45 125//45 127//45
f 67//45 127//45 69//45
f 69//46 127//46 156//46
f 69//47 156//47 71//47
f 71//48 156//48 158//48
f 71//48 158//48 73//48
f 73//49 158//49 160//49
f 73//49 160//49 74//49
f 74//50 160//50 162//50
f 74//50 162//50 35//50
f 35//51 162//51 110//51
f 35//51 110//51 4//51
f 3//3 4//3 105//3
f 105//3 4//3 110//3
f 8//52 3//52 104//52
f 104//52 3//52 105//52
f 7//3 8//3 103//3
f 103//3 8//3 104//3
f 6//4 7//4 102//4
f 102//4 7//4 103//4
f 5//3 6//3 106//3
f 106//3 6//3 102//3
f 25//52 5//52 107//52
f 107//52 5//52 106//52
f 24//3 25//3 108//3
f 108//3 25//3 107//3
f 23//4 24//4 100//4
f 100//4 24//4 108//4
f 22//3 23//3 99//3
f 99//3 23//3 100//3
f 20//52 22//52 98//52
f 98//52 22//52 99//52
f 50//53 118//53 47//53
f 47//53 118//53 137//53
f 47//54 137//54 45//54
f 45//54 137//54 139//54
f 45//55 139//55 43//55
f 43//55 139//55 141//55
f 43//56 141//56 41//56
f 41//56 141//56 143//56
f 41//57 143//57 39//57
f 39//57 143//57 149//57
f 39//58 149//58 81//58
f 81//58 149//58 151//58
f 81//59 151//59 79//59
f 79//59 151//59 153//59
f 79//60 153//60 77//60
f 77//60 153//60 155//60
f 77//61 155//61 65//61
f 65//61 155//61 174//61
f 65//62 174//62 63//62
f 63//62 174//62 176//62
f 63//63 176//63 61//63
f 61//63 176//63 178//63
f 61//64 178//64 59//64
f 59//64 178//64 165//64
f 59//65 165//65 57//65
f 57//65 165//65 167//65
f 57//66 167//66 88//66
f 88//66 167//66 169//66
f 88//67 169//67 86//67
f 86//67 169//67 171//67
f 86//68 171//68 84//68
f 84//68 171//68 183//68
f 84//69 183//69 93//69
f 93//69 183//69 185//69
f 93//70 185//70 91//70
f 91//70 185//70 187//70
f 91//71 187//71 10//71
f 10//71 187//71 189//71
f 10//72 189//72 11//72
f 11//72 189//72 190//72
f 11//73 190//73 12//73
f 12//73 190//73 134//73
f 12//74 134//74 13//74
f 13//74 134//74 133//74
f 13//75 133//75 14//75
f 14//75 133//75 132//75
f 14//76 132//76 27//76
f 27//76 132//76 130//76
f 27//77 130//77 28//77
f 28//77 130//77 129//77
f 28//78 129//78 29//78
f 29//78 129//78 146//78
f 29//79 146//79 30//79
f 30//79 146//79 145//79
f 30//80 145//80 37//80
f 37//80 145//80 144//80
f 37//81 144//81 38//81
f 38//81 144//81 164//81
f 38//82 164//82 34//82
f 34//82 164//82 163//82
f 34//83 163//83 36//83
f 36//83 163//83 161//83
f 36//84 161//84 72//84
f 72//84 161//84 159//84
f 72//85 159//85 70//85
f 70//85 159//85 157//85
f 70//86 157//86 68//86
f 68//86 157//86 126//86
f 68//87 126//87 56//87
f 56//87 126//87 124//87
f 56//88 124//88 54//88
f 54//88 124//88 122//88
f 54//89 122//89 52//89
f 52//89 122//89 119//89
f 52//90 119//90 50//90
f 50//90 119//90 118//90
